<svg width="50" height="41" viewBox="0 0 50 41" fill="none" xmlns="http://www.w3.org/2000/svg">
<path opacity="0.7" d="M6.664 40.592C4.168 40.592 2.344 40.4 1.192 40.016V30.944C2.92 30.944 4.024 30.56 4.504 29.792C5.08 28.928 5.368 27.872 5.368 26.624V23.6H3.928C2.968 23.6 2.152 23.312 1.48 22.736C0.808 22.064 0.472 21.2 0.472 20.144V4.59199C0.472 2.096 1.624 0.847998 3.928 0.847998H19.336C21.448 0.847998 22.504 2.096 22.504 4.59199V27.2C22.504 32.288 20.92 35.792 17.752 37.712C14.584 39.632 10.888 40.592 6.664 40.592ZM33.304 40.592C30.808 40.592 28.984 40.4 27.832 40.016V30.944C29.56 30.944 30.664 30.56 31.144 29.792C31.72 28.928 32.008 27.872 32.008 26.624V23.6H30.568C29.608 23.6 28.792 23.312 28.12 22.736C27.448 22.064 27.112 21.2 27.112 20.144V4.59199C27.112 2.096 28.264 0.847998 30.568 0.847998H45.976C48.088 0.847998 49.144 2.096 49.144 4.59199V27.2C49.144 32.288 47.56 35.792 44.392 37.712C41.224 39.632 37.528 40.592 33.304 40.592Z" fill="#434343"/>
</svg>
